<svg height="48pt" viewBox="0 0 48 48" width="48pt" xmlns="http://www.w3.org/2000/svg" xmlns:xlink="http://www.w3.org/1999/xlink"><linearGradient id="a" gradientTransform="matrix(47 0 0 44.733 .5 1.633)" gradientUnits="userSpaceOnUse" x1="0" x2="1" y1=".5" y2=".5"><stop offset="0" stop-color="#4776e6"/><stop offset=".98260869565" stop-color="#8e54e9"/></linearGradient><path d="m25 15c.385 7.752.947 14.603 1.361 18h3.256l2.279-8.623 2.397 8.623h3.316c.415-3.397 1.006-10.248 1.391-18h-3.168c-.089 1.829-.413 12.715-.531 13.615h-.09c-.799-2.932-1.449-5.712-2.248-8.615h-1.807c-.769 2.903-1.302 5.48-2.101 8.615h-.117c-.089-.9-.594-11.786-.653-13.615zm-8.604 3.672-.593 3.699c-1.104-.769-2.426-1.478-2.426-2.158 0-.769 1.236-1.541 3.019-1.541zm.34 7.75c1.104.769 1.897 1.448 1.897 2.187 0 .799-.765 1.531-2.52 1.62zm.254-13.422-.537 3.012c-4.273.354-6.443 2.517-6.443 4.498 0 2.01 2.877 3.546 5.056 4.877l-.793 4.783c-1.018-.059-2.263-.238-3.707-.504l-.566 3.045c1.217.148 2.348.236 3.367.266l-.621 2.994 2.774.029.537-3.141c4.273-.414 5.943-2.417 5.943-4.398 0-2.04-2.377-3.636-4.557-5.025l.793-4.676c.906.088 1.981.267 3.254.533l.369-3.045c-.962-.148-1.869-.206-2.718-.266l.652-2.953zm-12.312 10.567c0 1.153-.936 2.089-2.089 2.089-1.153 0-2.089-.936-2.089-2.089v-15.667c0-1.661.658-3.259 1.838-4.428 1.17-1.181 2.768-1.839 4.429-1.839h18.8c1.153 0 2.089.936 2.089 2.089 0 1.153-.936 2.089-2.089 2.089h-18.8c-.554 0-1.087.219-1.473.616-.397.387-.616.919-.616 1.473zm38.644 8.177c0-1.152.936-2.088 2.089-2.088 1.153 0 2.089.936 2.089 2.088v8.356c0 1.661-.658 3.259-1.838 4.428-1.17 1.181-2.768 1.839-4.429 1.839h-34.466c-1.661 0-3.259-.658-4.429-1.839-1.18-1.169-1.838-2.767-1.838-4.428v-2.089c0-1.153.936-2.089 2.089-2.089 1.153 0 2.089.936 2.089 2.089v2.089c0 .554.219 1.086.616 1.473.386.397.919.616 1.473.616h34.466c.554 0 1.087-.219 1.473-.616.397-.387.616-.919.616-1.473zm-8.355-25.933c-1.153 0-2.089-.936-2.089-2.089 0-1.153.936-2.089 2.089-2.089h6.266c1.661 0 3.259.658 4.429 1.839 1.18 1.169 1.838 2.767 1.838 4.428v9.4c0 1.153-.936 2.089-2.089 2.089-1.153 0-2.089-.936-2.089-2.089v-9.4c0-.554-.219-1.086-.616-1.473-.386-.397-.919-.616-1.473-.616z" fill="url(#a)" fill-rule="evenodd"/></svg>